<svg width="32" height="33" viewBox="0 0 32 33" fill="none" xmlns="http://www.w3.org/2000/svg">
<path d="M16 32.5C24.8366 32.5 32 25.3366 32 16.5C32 7.66345 24.8366 0.5 16 0.5C7.16344 0.5 0 7.66345 0 16.5C0 25.3366 7.16344 32.5 16 32.5Z" fill="white"/>
<path d="M16 8.23912C18.6903 8.23912 19.0079 8.25097 20.0699 8.29838C20.7092 8.30614 21.3426 8.42318 21.9425 8.64445C22.3787 8.80785 22.7736 9.06519 23.0992 9.39823C23.4338 9.7235 23.6914 10.1196 23.853 10.5573C24.0753 11.1561 24.1923 11.7889 24.1991 12.4276C24.2488 13.4895 24.2583 13.8095 24.2583 16.4999C24.2583 19.1902 24.2583 19.5079 24.1991 20.5698C24.1923 21.2085 24.0753 21.8412 23.853 22.44C23.6855 22.8744 23.429 23.269 23.0999 23.5984C22.7709 23.9278 22.3767 24.1848 21.9425 24.3529C21.3426 24.5742 20.7092 24.6912 20.0699 24.699C19.0079 24.7464 18.6903 24.7582 16 24.7582C13.3096 24.7582 12.992 24.7464 11.93 24.699C11.2907 24.6912 10.6573 24.5742 10.0574 24.3529C9.62324 24.1848 9.22898 23.9278 8.89997 23.5984C8.57095 23.269 8.31445 22.8744 8.14692 22.44C7.92464 21.8412 7.80756 21.2085 7.80084 20.5698C7.75106 19.5079 7.74158 19.1879 7.74158 16.4999C7.74158 13.8119 7.74158 13.4895 7.80084 12.4276C7.80756 11.7889 7.92464 11.1561 8.14692 10.5573C8.30852 10.1196 8.56608 9.7235 8.90069 9.39823C9.22634 9.06519 9.62125 8.80785 10.0574 8.64445C10.6573 8.42318 11.2907 8.30614 11.93 8.29838C12.992 8.25097 13.3096 8.23912 16 8.23912ZM16 6.42578C13.2645 6.42578 12.9185 6.42578 11.8471 6.48504C11.0107 6.50385 10.1836 6.66414 9.40084 6.95911C8.73137 7.21753 8.12338 7.61317 7.61596 8.12059C7.10853 8.62802 6.71288 9.23602 6.45447 9.90549C6.1586 10.6872 5.99828 11.5137 5.98039 12.3493C5.93062 13.4255 5.91876 13.7716 5.91876 16.5046C5.91876 19.2376 5.91876 19.5861 5.98039 20.6575C5.99865 21.4939 6.15896 22.3211 6.45447 23.1037C6.71342 23.7726 7.10927 24.38 7.61665 24.887C8.12403 25.3939 8.73175 25.7893 9.40084 26.0477C10.1833 26.3438 11.0106 26.5042 11.8471 26.5218C12.9208 26.5716 13.2693 26.5834 16 26.5834C18.7306 26.5834 19.0814 26.5716 20.1528 26.5218C20.9893 26.5042 21.8166 26.3438 22.5991 26.0477C23.2682 25.7893 23.8759 25.3939 24.3833 24.887C24.8906 24.38 25.2865 23.7726 25.5454 23.1037C25.8409 22.3211 26.0013 21.4939 26.0195 20.6575C26.0693 19.5837 26.0811 19.2353 26.0811 16.5046C26.0811 13.7739 26.0811 13.4231 26.0195 12.3493C26.0016 11.5137 25.8413 10.6872 25.5454 9.90549C25.287 9.23602 24.8914 8.62802 24.384 8.12059C23.8765 7.61317 23.2685 7.21753 22.5991 6.95911C21.8163 6.66414 20.9892 6.50385 20.1528 6.48504C19.0791 6.43526 18.7306 6.42578 16 6.42578Z" fill="#151515"/>
<path d="M15.9999 11.3252C14.9764 11.3247 13.9757 11.6278 13.1244 12.1961C12.2732 12.7644 11.6096 13.5724 11.2176 14.5179C10.8256 15.4633 10.7227 16.5038 10.9221 17.5078C11.1215 18.5117 11.6142 19.4339 12.3377 20.1578C13.0613 20.8817 13.9833 21.3748 14.9871 21.5746C15.991 21.7745 17.0315 21.6721 17.9772 21.2806C18.9228 20.889 19.7311 20.2258 20.2998 19.3748C20.8685 18.5238 21.172 17.5232 21.172 16.4997C21.1723 15.8203 21.0388 15.1475 20.779 14.5197C20.5192 13.8919 20.1383 13.3215 19.658 12.8409C19.1777 12.3604 18.6074 11.9792 17.9797 11.7191C17.3521 11.4591 16.6793 11.3252 15.9999 11.3252ZM15.9999 19.8585C15.3355 19.8585 14.686 19.6615 14.1336 19.2923C13.5812 18.9231 13.1507 18.3984 12.8965 17.7845C12.6424 17.1706 12.576 16.4952 12.7058 15.8436C12.8356 15.192 13.1557 14.5935 13.6257 14.1238C14.0957 13.6542 14.6944 13.3345 15.3461 13.2052C15.9978 13.0758 16.6732 13.1427 17.2869 13.3973C17.9006 13.6518 18.425 14.0827 18.7938 14.6354C19.1626 15.188 19.3592 15.8377 19.3587 16.5021C19.3574 17.3921 19.003 18.2452 18.3733 18.8741C17.7435 19.5029 16.8899 19.8562 15.9999 19.8562V19.8585Z" fill="#151515"/>
<path d="M21.3783 12.3309C22.046 12.3309 22.5872 11.7896 22.5872 11.122C22.5872 10.4543 22.046 9.91309 21.3783 9.91309C20.7107 9.91309 20.1694 10.4543 20.1694 11.122C20.1694 11.7896 20.7107 12.3309 21.3783 12.3309Z" fill="#151515"/>
</svg>
