<svg width="32" height="33" viewBox="0 0 32 33" fill="none" xmlns="http://www.w3.org/2000/svg">
<path d="M16 32.5C24.8365 32.5 32 25.3366 32 16.5C32 7.66344 24.8365 0.5 16 0.5C7.16344 0.5 0 7.66344 0 16.5C0 25.3366 7.16344 32.5 16 32.5Z" fill="white"/>
<path d="M17.2374 14.319C17.5005 14.0227 17.7115 13.7216 17.9864 13.468C18.3765 13.0878 18.8383 12.7888 19.3449 12.5886C19.8515 12.3884 20.3929 12.2909 20.9375 12.3018C21.5652 12.291 22.1913 12.3668 22.7983 12.527C24.1873 12.9299 24.9932 13.8852 25.3796 15.2411C25.6357 16.2571 25.7513 17.3035 25.7233 18.351C25.7233 20.5625 25.7233 22.7717 25.7233 24.988C25.7233 25.1942 25.6664 25.2488 25.4626 25.2464C24.3216 25.2369 23.1831 25.2369 22.0469 25.2464C21.8454 25.2464 21.8098 25.1871 21.8098 25.0093C21.8098 22.906 21.8098 20.8027 21.8098 18.6994C21.8217 18.1711 21.7594 17.6437 21.6249 17.1326C21.3524 16.1845 20.6768 15.7104 19.6883 15.7602C18.3396 15.8313 17.6356 16.5021 17.4649 17.8745C17.4231 18.2015 17.4025 18.5309 17.4033 18.8606C17.4033 20.9062 17.4033 22.9519 17.4033 24.9975C17.4033 25.2013 17.3512 25.2606 17.1426 25.2582C15.9977 25.2582 14.8504 25.2582 13.7032 25.2582C13.5183 25.2582 13.4661 25.2108 13.4661 25.0212C13.4661 20.9726 13.4661 16.9232 13.4661 12.8731C13.4661 12.6716 13.5301 12.636 13.7198 12.636C14.8101 12.6455 15.8997 12.6455 16.9885 12.636C17.1876 12.636 17.2398 12.7 17.2255 12.8896C17.2303 13.3495 17.2374 13.8331 17.2374 14.319Z" fill="#151515"/>
<path d="M10.9985 18.9463C10.9985 20.9492 10.9985 22.9522 10.9985 24.9551C10.9985 25.178 10.944 25.2467 10.7141 25.2443C9.57393 25.2301 8.43615 25.2443 7.29838 25.2443C7.11586 25.2443 7.06134 25.1993 7.06134 25.0073C7.06134 20.9492 7.06134 16.8927 7.06134 12.8378C7.06134 12.6695 7.10401 12.6008 7.28178 12.6126C8.43615 12.6126 9.59052 12.6126 10.7449 12.6126C10.9677 12.6126 10.9961 12.6956 10.9961 12.8876C10.9946 14.9071 10.9954 16.9267 10.9985 18.9463Z" fill="#151515"/>
<path d="M11.3115 8.59434C11.3138 9.04463 11.1824 9.48548 10.9338 9.86096C10.6853 10.2364 10.3308 10.5296 9.91534 10.7034C9.49991 10.8771 9.04225 10.9235 8.60039 10.8368C8.15852 10.75 7.75237 10.534 7.43346 10.2161C7.11455 9.89819 6.89725 9.49273 6.80911 9.05114C6.72097 8.60955 6.76597 8.15173 6.93839 7.73575C7.11082 7.31978 7.40291 6.96438 7.77761 6.71464C8.15231 6.4649 8.59274 6.33208 9.04304 6.33301C9.64248 6.33611 10.2166 6.57512 10.6411 6.99833C11.0657 7.42155 11.3065 7.99491 11.3115 8.59434Z" fill="#151515"/>
</svg>
