<svg width="120" height="120" viewBox="0 0 120 120" fill="none" xmlns="http://www.w3.org/2000/svg">
<path d="M46.6667 83.8333L83.8333 60L46.6667 36.1667V83.8333ZM60 120C51.6667 120 43.8622 118.418 36.5867 115.253C29.3067 112.084 22.9733 107.804 17.5867 102.413C12.1956 97.0267 7.91555 90.6933 4.74667 83.4133C1.58222 76.1378 0 68.3333 0 60C0 51.6667 1.58222 43.86 4.74667 36.58C7.91555 29.3044 12.1956 22.9711 17.5867 17.58C22.9733 12.1933 29.3067 7.91555 36.5867 4.74667C43.8622 1.58222 51.6667 0 60 0C68.3333 0 76.14 1.58222 83.42 4.74667C90.6955 7.91555 97.0289 12.1933 102.42 17.58C107.807 22.9711 112.084 29.3044 115.253 36.58C118.418 43.86 120 51.6667 120 60C120 68.3333 118.418 76.1378 115.253 83.4133C112.084 90.6933 107.807 97.0267 102.42 102.413C97.0289 107.804 90.6955 112.084 83.42 115.253C76.14 118.418 68.3333 120 60 120ZM60 113.333C74.8889 113.333 87.5 108.167 97.8333 97.8333C108.167 87.5 113.333 74.8889 113.333 60C113.333 45.1111 108.167 32.5 97.8333 22.1667C87.5 11.8333 74.8889 6.66667 60 6.66667C45.1111 6.66667 32.5 11.8333 22.1667 22.1667C11.8333 32.5 6.66667 45.1111 6.66667 60C6.66667 74.8889 11.8333 87.5 22.1667 97.8333C32.5 108.167 45.1111 113.333 60 113.333Z" fill="white"/>
</svg>
