<svg width="32" height="33" viewBox="0 0 32 33" fill="none" xmlns="http://www.w3.org/2000/svg">
<path d="M16 32.5C24.8365 32.5 32 25.3366 32 16.5C32 7.66345 24.8365 0.5 16 0.5C7.16343 0.5 0 7.66345 0 16.5C0 25.3366 7.16343 32.5 16 32.5Z" fill="white"/>
<path d="M12.7668 25.7134C20.589 25.7134 24.8557 19.2399 24.8557 13.6245C24.8557 13.442 24.8557 13.2594 24.8557 13.0769C25.6868 12.4751 26.4044 11.7303 26.9748 10.8772C26.1992 11.2192 25.3773 11.4445 24.5357 11.5457C25.4227 11.0141 26.0864 10.1785 26.4035 9.19425C25.57 9.68985 24.6576 10.0386 23.706 10.2254C23.123 9.60455 22.3669 9.17321 21.5358 8.98728C20.7047 8.80136 19.8369 8.86941 19.0449 9.18262C18.253 9.49583 17.5734 10.0398 17.0942 10.7439C16.6151 11.448 16.3586 12.2798 16.3579 13.1314C16.3565 13.4577 16.3931 13.7831 16.467 14.1009C14.7777 14.0162 13.1252 13.5772 11.6167 12.8123C10.1082 12.0475 8.77739 10.9738 7.71079 9.66122C7.16686 10.5965 7.00012 11.7041 7.24457 12.758C7.48902 13.812 8.12624 14.7331 9.02634 15.3335C8.35155 15.3129 7.69153 15.1308 7.1016 14.8026C7.10036 14.8207 7.10036 14.8389 7.1016 14.8571C7.10188 15.838 7.44146 16.7886 8.06273 17.5477C8.684 18.3068 9.54872 18.8276 10.5102 19.0218C9.88487 19.1916 9.22907 19.2167 8.59257 19.0953C8.86561 19.9383 9.39436 20.6755 10.1054 21.2043C10.8165 21.7332 11.6746 22.0275 12.5606 22.0464C11.0552 23.2267 9.197 23.867 7.28413 23.8645C6.94586 23.8651 6.60786 23.8453 6.27197 23.8052C8.21444 25.0528 10.4748 25.7152 12.7834 25.7134" fill="#151515"/>
</svg>
